HIERARCHY
ROOT Hips
{
	OFFSET 0.00000 0.00000 0.00000
	CHANNELS 6 Xposition Yposition Zposition Zrotation Yrotation Xrotation 
	JOINT LHipJoint
	{
		OFFSET 0 0 0
		CHANNELS 3 Zrotation Yrotation Xrotation
		JOINT LeftUpLeg
		{
			OFFSET 1.55766 -1.60504 1.11378
			CHANNELS 3 Zrotation Yrotation Xrotation
			JOINT LeftLeg
			{
				OFFSET 2.29047 -6.29302 0.00000
				CHANNELS 3 Zrotation Yrotation Xrotation
				JOINT LeftFoot
				{
					OFFSET 2.52265 -6.93093 0.00000
					CHANNELS 3 Zrotation Yrotation Xrotation
					JOINT LeftToeBase
					{
						OFFSET 0.17633 -0.48446 2.02656
						CHANNELS 3 Zrotation Yrotation Xrotation
						End Site
						{
							OFFSET 0.00000 -0.00000 1.04989
						}
					}
				}
			}
		}
	}
	JOINT RHipJoint
	{
		OFFSET 0 0 0
		CHANNELS 3 Zrotation Yrotation Xrotation
		JOINT RightUpLeg
		{
			OFFSET -1.48599 -1.60504 1.11378
			CHANNELS 3 Zrotation Yrotation Xrotation
			JOINT RightLeg
			{
				OFFSET -2.27280 -6.24448 0.00000
				CHANNELS 3 Zrotation Yrotation Xrotation
				JOINT RightFoot
				{
					OFFSET -2.50834 -6.89161 0.00000
					CHANNELS 3 Zrotation Yrotation Xrotation
					JOINT RightToeBase
					{
						OFFSET -0.26967 -0.74090 2.08741
						CHANNELS 3 Zrotation Yrotation Xrotation
						End Site
						{
							OFFSET -0.00000 -0.00000 1.10614
						}
					}
				}
			}
		}
	}
	JOINT LowerBack
	{
		OFFSET 0 0 0
		CHANNELS 3 Zrotation Yrotation Xrotation
		JOINT Spine
		{
			OFFSET 0.06481 2.02437 -0.08472
			CHANNELS 3 Zrotation Yrotation Xrotation
			JOINT Spine1
			{
				OFFSET 0.00015 1.96711 0.18069
				CHANNELS 3 Zrotation Yrotation Xrotation
				JOINT Neck
				{
					OFFSET 0 0 0
					CHANNELS 3 Zrotation Yrotation Xrotation
					JOINT Neck1
					{
						OFFSET -0.29961 1.68293 -0.13041
						CHANNELS 3 Zrotation Yrotation Xrotation
						JOINT Head
						{
							OFFSET 0.59697 1.61501 -0.14669
							CHANNELS 3 Zrotation Yrotation Xrotation
							End Site
							{
								OFFSET 0.22973 1.74906 -0.10148
							}
						}
					}
				}
				JOINT LeftShoulder
				{
					OFFSET 0 0 0
					CHANNELS 3 Zrotation Yrotation Xrotation
					JOINT LeftArm
					{
						OFFSET 3.37968 1.02893 0.31147
						CHANNELS 3 Zrotation Yrotation Xrotation
						JOINT LeftForeArm
						{
							OFFSET 5.19807 -0.00000 -0.00000
							CHANNELS 3 Zrotation Yrotation Xrotation
							JOINT LeftHand
							{
								OFFSET 3.09370 -0.00000 -0.00000
								CHANNELS 3 Zrotation Yrotation Xrotation
								JOINT LeftFingerBase
								{
									OFFSET 0 0 0
									CHANNELS 3 Zrotation Yrotation Xrotation
									JOINT LeftHandIndex1
									{
										OFFSET 0.67263 -0.00000 -0.00000
										CHANNELS 3 Zrotation Yrotation Xrotation
										End Site
										{
											OFFSET 0.54229 -0.00000 -0.00000
										}
									}
								}
								JOINT LThumb
								{
									OFFSET 0 0 0
									CHANNELS 3 Zrotation Yrotation Xrotation
									End Site
									{
										OFFSET 0.55057 -0.00000 0.55057
									}
								}
							}
						}
					}
				}
				JOINT RightShoulder
				{
					OFFSET 0 0 0
					CHANNELS 3 Zrotation Yrotation Xrotation
					JOINT RightArm
					{
						OFFSET -3.38254 0.96355 -0.16120
						CHANNELS 3 Zrotation Yrotation Xrotation
						JOINT RightForeArm
						{
							OFFSET -5.45222 -0.00000 -0.00000
							CHANNELS 3 Zrotation Yrotation Xrotation
							JOINT RightHand
							{
								OFFSET -3.01284 -0.00000 -0.00000
								CHANNELS 3 Zrotation Yrotation Xrotation
								JOINT RightFingerBase
								{
									OFFSET 0 0 0
									CHANNELS 3 Zrotation Yrotation Xrotation
									JOINT RightHandIndex1
									{
										OFFSET -0.62230 -0.00000 -0.00000
										CHANNELS 3 Zrotation Yrotation Xrotation
										End Site
										{
											OFFSET -0.50171 -0.00000 -0.00000
										}
									}
								}
								JOINT RThumb
								{
									OFFSET 0 0 0
									CHANNELS 3 Zrotation Yrotation Xrotation
									End Site
									{
										OFFSET -0.50937 -0.00000 0.50937
									}
								}
							}
						}
					}
				}
			}
		}
	}
}
MOTION
Frames: 6
Frame Time: 0.0166666
5.1911 9.0552 11.3027 -1.2816 -24.6991 -28.0945 0.0000 0.0000 0.0000 -5.7954 6.2252 -62.8721 24.8144 19.4350 104.2049 -0.1605 -16.0009 -9.4861 1.1257 -6.7393 -18.9453 0.0000 0.0000 0.0000 12.4460 14.8354 -60.5401 -24.4089 -19.5274 102.9890 0.1557 13.3834 -7.3066 -1.0054 6.3803 -17.8919 4.2517 1.7304 10.8117 -1.9578 2.5945 7.5860 -4.6528 1.4943 2.1737 -30.3016 -9.0327 17.6120 37.3992 -21.1144 6.9653 18.5861 -12.4673 7.1026 0.0000 0.0000 0.0000 -61.9193 10.4300 34.2921 99.9271 -59.6243 -68.5863 -0.0000 0.0000 -5.2324 -10.3434 4.5218 -0.8244 -7.1250 0.0000 -0.0000 -29.3210 33.1869 9.6089 0.0000 0.0000 0.0000 75.4643 -8.8112 27.3336 -84.3972 59.8811 -55.1498 0.0000 0.0000 22.3989 3.7113 -11.0027 -0.7093 7.1250 -0.0000 -0.0000 26.4396 -39.4897 3.9144
5.1943 9.0601 11.2907 -1.3310 -24.7175 -28.1239 0.0000 0.0000 0.0000 -5.7559 6.3120 -62.8184 24.7764 19.4440 104.0908 -0.1717 -16.0697 -9.4146 1.1157 -6.7101 -18.8594 0.0000 0.0000 0.0000 12.5400 14.8046 -60.4400 -24.3615 -19.5377 102.8473 0.1601 13.3745 -7.2335 -1.0039 6.3758 -17.8787 4.2813 1.7080 10.9315 -1.9347 2.5726 7.4872 -4.6506 1.4776 2.0018 -30.2907 -9.0881 17.5361 37.5109 -21.1422 6.7402 18.6139 -12.4783 7.0774 0.0000 0.0000 0.0000 -62.0026 10.5947 34.2966 99.5142 -59.6552 -68.2300 -0.0000 0.0000 -6.0059 -9.8285 4.2675 -0.7386 -7.1250 0.0000 -0.0000 -28.8706 32.9977 9.5746 0.0000 0.0000 0.0000 75.4117 -8.7775 27.4907 -83.7132 59.8501 -54.5582 0.0000 0.0000 22.3801 3.5309 -11.0090 -0.6751 7.1250 -0.0000 -0.0000 26.2970 -39.5114 3.8740
5.1964 9.0670 11.2799 -1.3869 -24.7246 -28.0999 0.0000 0.0000 0.0000 -5.7171 6.3799 -62.8107 24.7377 19.4531 103.9745 -0.1828 -16.1386 -9.3447 1.1149 -6.7080 -18.8532 0.0000 0.0000 0.0000 12.6246 14.7745 -60.3882 -24.3148 -19.5477 102.7076 0.1642 13.3662 -7.1670 -1.0013 6.3677 -17.8551 4.3025 1.6738 11.1043 -1.9124 2.5365 7.3711 -4.6457 1.4516 1.7810 -30.2793 -9.1547 17.4430 37.6664 -21.1655 6.4286 18.6586 -12.4875 7.0351 0.0000 0.0000 0.0000 -62.1059 10.7630 34.2992 99.0806 -59.6861 -67.8558 -0.0000 0.0000 -6.5164 -9.4129 4.0403 -0.6692 -7.1250 0.0000 -0.0000 -28.5009 32.8241 9.5578 0.0000 0.0000 0.0000 75.3894 -8.8006 27.6394 -83.0997 59.8193 -54.0278 0.0000 0.0000 22.4230 3.3114 -11.0409 -0.6348 7.1250 -0.0000 -0.0000 26.1320 -39.5595 3.8114
5.1965 9.0753 11.2711 -1.4389 -24.7069 -28.0192 0.0000 0.0000 0.0000 -5.6926 6.4153 -62.8571 24.7004 19.4618 103.8625 -0.1947 -16.2128 -9.2699 1.1156 -6.7098 -18.8586 0.0000 0.0000 0.0000 12.6824 14.7353 -60.3970 -24.2730 -19.5565 102.5827 0.1672 13.3593 -7.1160 -0.9972 6.3550 -17.8180 4.2993 1.6329 11.2866 -1.8941 2.4902 7.2353 -4.6311 1.4186 1.5321 -30.2759 -9.2305 17.3474 37.8617 -21.1943 6.0570 18.7217 -12.5021 6.9864 0.0000 -0.0000 0.0000 -62.2032 10.9249 34.3246 98.5501 -59.7220 -67.3977 -0.0000 0.0000 -6.5905 -9.0444 3.7738 -0.6003 -7.1250 0.0000 -0.0000 -28.1543 32.6112 9.5785 0.0000 -0.0000 0.0000 75.3992 -8.8828 27.7678 -82.5767 59.7907 -53.5757 0.0000 0.0000 22.5821 3.0872 -11.0794 -0.5938 7.1250 -0.0000 -0.0000 25.9652 -39.6141 3.7444
5.1944 9.0842 11.2651 -1.4745 -24.6726 -27.8881 0.0000 0.0000 0.0000 -5.6898 6.4355 -62.9602 24.6680 19.4693 103.7653 -0.2079 -16.2947 -9.1879 1.1067 -6.6841 -18.7828 0.0000 0.0000 0.0000 12.7043 14.6916 -60.4737 -24.2415 -19.5631 102.4886 0.1691 13.3581 -7.0864 -0.9945 6.3467 -17.7939 4.2717 1.5893 11.4454 -1.8822 2.4374 7.0842 -4.6080 1.3813 1.2782 -30.3113 -9.3028 17.2655 38.0982 -21.2268 5.6457 18.8157 -12.5246 6.9388 -0.0000 -0.0000 0.0000 -62.2839 11.0737 34.3700 97.9397 -59.7605 -66.8704 -0.0000 0.0000 -6.3993 -8.7338 3.4867 -0.5353 -7.1250 0.0000 -0.0000 -27.8447 32.3747 9.6291 -0.0000 -0.0000 0.0000 75.4227 -9.0115 27.8941 -82.1514 59.7659 -53.2082 0.0000 0.0000 22.8045 2.8661 -11.1166 -0.5531 7.1250 -0.0000 -0.0000 25.8001 -39.6673 3.6795
5.1904 9.0918 11.2618 -1.4900 -24.6348 -27.7317 0.0000 0.0000 0.0000 -5.7021 6.4629 -63.1068 24.6461 19.4744 103.6997 -0.2208 -16.3807 -9.1122 1.0861 -6.6236 -18.6050 0.0000 0.0000 0.0000 12.6964 14.6536 -60.6041 -24.2237 -19.5668 102.4356 0.1701 13.3622 -7.0755 -0.9922 6.3394 -17.7725 4.2319 1.5493 11.5879 -1.8810 2.3881 6.9255 -4.5886 1.3455 1.0258 -30.3808 -9.3587 17.2321 38.3827 -21.2482 5.1825 18.9504 -12.5516 6.8768 0.0000 -0.0000 0.0000 -62.3296 11.1947 34.4404 97.3125 -59.7970 -66.3285 -0.0000 0.0000 -6.2116 -8.5455 3.2613 -0.4898 -7.1250 0.0000 -0.0000 -27.6430 32.1849 9.6870 0.0000 -0.0000 0.0000 75.4540 -9.1816 28.0269 -81.8414 59.7470 -52.9404 0.0000 0.0000 22.9869 2.6502 -11.1414 -0.5125 7.1250 -0.0000 -0.0000 25.6345 -39.7088 3.6232
